<svg width="25" height="21" viewBox="0 0 25 21" fill="none" xmlns="http://www.w3.org/2000/svg">
<path d="M12.5 0C12.3557 1.85058e-05 12.2129 0.0286522 12.0798 0.0842436C11.9466 0.139835 11.8259 0.22128 11.7244 0.323864L0.721591 9.92472C0.652873 9.97542 0.597022 10.0416 0.558534 10.1178C0.520046 10.194 0.499997 10.2782 0.5 10.3636C0.5 10.5083 0.557467 10.647 0.65976 10.7493C0.762052 10.8516 0.900791 10.9091 1.04545 10.9091H3.77273V19.6364C3.77273 20.2385 4.26145 20.7273 4.86364 20.7273H9.22727C9.82945 20.7273 10.3182 20.2385 10.3182 19.6364V13.0909H14.6818V19.6364C14.6818 20.2385 15.1705 20.7273 15.7727 20.7273H20.1364C20.7385 20.7273 21.2273 20.2385 21.2273 19.6364V10.9091H23.9545C24.0992 10.9091 24.2379 10.8516 24.3402 10.7493C24.4425 10.647 24.5 10.5083 24.5 10.3636C24.5 10.2782 24.48 10.194 24.4415 10.1178C24.403 10.0416 24.3471 9.97542 24.2784 9.92472L13.282 0.330256C13.2798 0.328116 13.2777 0.325985 13.2756 0.323864C13.1741 0.22128 13.0534 0.139835 12.9202 0.0842436C12.7871 0.0286522 12.6443 1.85058e-05 12.5 0Z" fill="#D4D6DD"/>
</svg>
