<svg width="21" height="20" viewBox="0 0 21 20" fill="none" xmlns="http://www.w3.org/2000/svg">
<mask id="mask0_156_6208" style="mask-type:alpha" maskUnits="userSpaceOnUse" x="2" y="1" width="18" height="18">
<path d="M3.1945 8.61026C3.01031 8.61026 2.83366 8.53709 2.70342 8.40685C2.57317 8.2766 2.5 8.09995 2.5 7.91576V2.36113C2.5 2.17693 2.57317 2.00029 2.70342 1.87004C2.83366 1.7398 3.01031 1.66663 3.1945 1.66663H8.75052C8.93472 1.66663 9.11136 1.7398 9.24161 1.87004C9.37185 2.00029 9.44502 2.17693 9.44502 2.36113V7.91576C9.44502 8.09995 9.37185 8.2766 9.24161 8.40685C9.11136 8.53709 8.93472 8.61026 8.75052 8.61026H3.1945ZM12.9175 8.61026C12.7333 8.61026 12.5567 8.53709 12.4264 8.40685C12.2962 8.2766 12.223 8.09995 12.223 7.91576V2.36113C12.223 2.17693 12.2962 2.00029 12.4264 1.87004C12.5567 1.7398 12.7333 1.66663 12.9175 1.66663H18.4722C18.6564 1.66663 18.833 1.7398 18.9633 1.87004C19.0935 2.00029 19.1667 2.17693 19.1667 2.36113V7.91576C19.1667 8.09995 19.0935 8.2766 18.9633 8.40685C18.833 8.53709 18.6564 8.61026 18.4722 8.61026H12.9175ZM3.1945 18.3333C3.01031 18.3333 2.83366 18.2601 2.70342 18.1299C2.57317 17.9996 2.5 17.823 2.5 17.6388V12.0828C2.5 11.8986 2.57317 11.7219 2.70342 11.5917C2.83366 11.4614 3.01031 11.3883 3.1945 11.3883H8.75052C8.93472 11.3883 9.11136 11.4614 9.24161 11.5917C9.37185 11.7219 9.44502 11.8986 9.44502 12.0828V17.6388C9.44502 17.823 9.37185 17.9996 9.24161 18.1299C9.11136 18.2601 8.93472 18.3333 8.75052 18.3333H3.1945ZM12.9175 18.3333C12.7333 18.3333 12.5567 18.2601 12.4264 18.1299C12.2962 17.9996 12.223 17.823 12.223 17.6388V12.0828C12.223 11.8986 12.2962 11.7219 12.4264 11.5917C12.5567 11.4614 12.7333 11.3883 12.9175 11.3883H18.4722C18.6564 11.3883 18.833 11.4614 18.9633 11.5917C19.0935 11.7219 19.1667 11.8986 19.1667 12.0828V17.6388C19.1667 17.823 19.0935 17.9996 18.9633 18.1299C18.833 18.2601 18.6564 18.3333 18.4722 18.3333H12.9175Z" fill="black"/>
</mask>
<g mask="url(#mask0_156_6208)">
<rect x="0.833984" y="-0.00109863" width="20" height="20" fill="#006FFD"/>
</g>
</svg>
