<svg width="21" height="20" viewBox="0 0 21 20" fill="none" xmlns="http://www.w3.org/2000/svg">
<mask id="mask0_164_3781" style="mask-type:alpha" maskUnits="userSpaceOnUse" x="1" y="0" width="18" height="20">
<path d="M15.1688 4.99988C15.1688 7.76124 12.9303 9.99977 10.169 9.99977C7.40767 9.99977 5.16918 7.76124 5.16918 4.99988C5.16918 2.23852 7.40767 0 10.169 0C12.9303 0 15.1688 2.23852 15.1688 4.99988Z" fill="#006FFD"/>
<path d="M1.83594 16.6667C1.83594 13.9054 4.07443 11.6669 6.83574 11.6669H13.5021C16.2635 11.6669 18.502 13.9054 18.502 16.6667V17.5001C18.502 18.8807 17.3827 20 16.0021 20H4.33584C2.95518 20 1.83594 18.8807 1.83594 17.5001V16.6667Z" fill="#006FFD"/>
</mask>
<g mask="url(#mask0_164_3781)">
<rect x="0.167969" y="-0.00109863" width="19.9992" height="19.9995" fill="#D4D6DD"/>
</g>
</svg>
